<svg width="375" height="409" viewBox="0 0 375 409" fill="none" xmlns="http://www.w3.org/2000/svg">
<path d="M266.907 87.2887L289.189 123.559C289.189 123.559 275.761 130.059 256.764 144.548C240.625 156.911 220.188 180.243 220.188 180.243L182.333 115.065C182.333 115.065 199.241 95.044 224.363 78.191C247.593 62.5294 252.426 63.5231 252.426 63.5231L266.907 87.2887Z" fill="white" stroke="#262626" stroke-width="0.496227" stroke-miterlimit="10"/>
<path d="M190.38 106.39L223.755 165.032C223.755 165.032 234.905 152.719 247.218 142.194C268.465 124.193 284.802 116.553 284.802 116.553L252.295 63.449C252.427 63.5236 222.729 71.0887 190.38 106.39Z" fill="#262626"/>
<path d="M357.403 97.3185C357.403 97.3185 339.618 83.6915 302.765 97.129C265.912 110.566 225.89 146.661 225.89 146.661L188.866 82.4752C188.866 82.4752 239.387 40.1367 273.345 33.502C300.862 28.0969 315.268 35.549 315.268 35.549L357.403 97.3185Z" fill="white" stroke="#262626" stroke-width="0.496227" stroke-miterlimit="10"/>
<path d="M349.065 68.8472L304.663 162.937L180.499 147.351" stroke="#FF6B00" stroke-width="0.496227" stroke-miterlimit="10"/>
<path d="M180.088 198.804L248.02 179.974L257.373 213.717L189.441 232.547L180.088 198.804Z" fill="white" stroke="#FF6B00" stroke-width="0.496227" stroke-miterlimit="10"/>
<path d="M145.682 337.796L137.939 339.942C135.916 339.059 133.817 338.307 131.765 337.32C131.501 337.171 131.266 337.125 131.002 336.976L128.543 328.101L141.964 324.381L145.682 337.796Z" fill="white" stroke="#FF6B00" stroke-width="0.496227" stroke-miterlimit="10"/>
<path d="M162.82 347.489L176.241 343.769L172.523 330.354L159.102 334.075L155.383 320.66L168.805 316.94L165.086 303.525L151.665 307.245L138.244 310.965L134.526 297.551L147.947 293.831L144.228 280.416L130.807 284.136L134.526 297.551L121.104 301.271L107.683 304.991L103.965 291.576L90.5438 295.297L77.1226 299.017L80.8409 312.431L84.5592 325.846L71.138 329.566L67.4197 316.152L61.4318 317.811L55.168 227.431C55.168 227.431 64.0596 214.188 87.95 213.344C123.734 212.093 141.297 231.337 170.911 237.907C189.522 242.082 193.651 233.715 193.651 233.715L205.727 311.373C205.727 311.373 236.875 304.628 254.661 325.477C265.215 337.886 249.351 350.839 232.936 355.389C215.798 360.14 195.529 357.202 163.077 348.418L162.82 347.489Z" fill="white" stroke="#FF6B00" stroke-width="0.496227" stroke-miterlimit="10"/>
<path d="M162.821 347.491L161.169 347.949C156.588 346.663 151.95 345.17 147.254 343.472L145.681 337.796L159.103 334.076L162.821 347.491Z" fill="white" stroke="#FF6B00" stroke-width="0.496227" stroke-miterlimit="10"/>
<path d="M128.543 328.1L115.431 331.734C115.328 331.763 115.196 331.688 115.093 331.717L111.403 318.405L124.824 314.685L128.543 328.1Z" fill="white" stroke="#FF6B00" stroke-width="0.496227" stroke-miterlimit="10"/>
<path d="M100.156 329.967C94.9321 329.971 90.3497 330.685 86.1915 331.727L84.5612 325.845L97.9824 322.125L100.156 329.967Z" fill="white" stroke="#FF6B00" stroke-width="0.496227" stroke-miterlimit="10"/>
<path d="M64.5349 345.841L63.5025 346.127L62.4685 331.969L71.1406 329.565L73.3144 337.407C68.8912 340.3 65.907 343.572 64.5349 345.841Z" fill="white" stroke="#FF6B00" stroke-width="0.496227" stroke-miterlimit="10"/>
<path d="M94.2625 308.712L107.684 304.992L111.402 318.406L97.9808 322.126L94.2625 308.712Z" fill="white" stroke="#FF6B00" stroke-width="0.496227" stroke-miterlimit="10"/>
<path d="M182.012 239.05L194.369 332.964C194.369 332.964 216.865 317.061 246.95 321.723L230.192 231.585C230.192 231.585 215.904 220.545 193.783 233.788C193.783 233.788 189.22 239.386 182.012 239.05Z" fill="#262626"/>
<path d="M193.786 233.789L190.934 211.467C190.934 211.467 224.255 205.342 240.602 225.812L257.643 330.206C257.643 330.206 255.887 323.47 235.746 317.386C223.62 313.746 206.981 318.692 206.981 318.692L193.786 233.789Z" fill="white" stroke="#FF6B00" stroke-width="0.496227" stroke-miterlimit="10"/>
<path d="M111.731 215.306C111.731 215.306 98.7474 208.571 82.3086 214.239C65.8698 219.906 26.1969 256.46 26.1969 256.46L24.9503 327.365C24.9503 327.365 73.3714 286.276 89.3212 282.855C104.52 279.531 117.475 286.162 117.475 286.162L111.731 215.306Z" fill="#262626"/>
<path d="M99.07 197.704C99.07 197.704 86.8122 193.99 69.6471 196.637C54.1911 199.032 13.5354 238.858 13.5354 238.858L12.2888 309.764C12.2888 309.764 61.1961 270.428 76.6597 265.253C92.1234 260.078 104.529 265.528 104.529 265.528L99.07 197.704Z" fill="white" stroke="#FF6B00" stroke-width="0.496227" stroke-miterlimit="10"/>
<path d="M58.3184 201.888L58.5492 233.604L27.6522 258.502L27.8294 225.451L50.3899 206.975L58.3184 201.888Z" fill="#262626"/>
<path d="M93.8534 337.713L128.542 328.098L134.634 350.077L99.9457 359.692L93.8534 337.713Z" fill="white" stroke="#FF6B00" stroke-width="0.496227" stroke-miterlimit="10"/>
<path d="M125.818 341.249L122.012 344.734L121.768 343.853L124.69 341.295L124.674 341.24L120.853 340.551L120.609 339.67L125.665 340.699L125.818 341.249ZM115.817 338.746L116.56 338.54L121.169 346.346L120.426 346.552L115.817 338.746ZM112.434 347.626L108.497 345.398L110.725 341.461L111.401 341.844L109.823 344.623L115.472 343.057L115.682 343.814L110.033 345.38L112.818 346.957L112.434 347.626ZM102.304 347.767L102.151 347.216L105.957 343.731L106.201 344.612L103.28 347.17L103.295 347.225L107.117 347.915L107.361 348.795L102.304 347.767Z" fill="black"/>
<path d="M50.3418 199.989L50.4694 231.733L19.5724 256.632L19.7594 226.023L50.3418 199.989Z" fill="white" stroke="#262626" stroke-width="0.496227" stroke-miterlimit="10"/>
<path d="M94.6987 173.915L91.8918 144.135L122.817 119.34L125.281 147.881L94.6987 173.915Z" fill="white" stroke="#262626" stroke-width="0.496227" stroke-miterlimit="10"/>
<path d="M108.591 151.842C106.652 152.379 104.645 151.244 104.108 149.307C103.571 147.369 104.707 145.363 106.646 144.825C108.585 144.288 110.592 145.423 111.129 147.361C111.666 149.298 110.53 151.305 108.591 151.842Z" fill="white" stroke="#262626" stroke-width="0.496227" stroke-miterlimit="10"/>
<path d="M35.7207 237.489L35.7188 248.712L24.8173 257.512L24.9336 246.702L35.7207 237.489Z" fill="white" stroke="#262626" stroke-width="0.496227" stroke-miterlimit="10"/>
<path d="M75.2598 254.197L75.3508 272.173L58.444 282.971L58.5246 265.614L75.2598 254.197Z" fill="white" stroke="#262626" stroke-width="0.496227" stroke-miterlimit="10"/>
<path d="M132.025 266.464C124.556 268.534 116.823 264.16 114.754 256.695C112.684 249.229 117.062 241.499 124.531 239.428C132.001 237.358 139.733 241.732 141.803 249.197C143.872 256.663 139.494 264.393 132.025 266.464Z" fill="#262626"/>
<path d="M128.466 260.449C120.997 262.52 113.265 258.146 111.195 250.68C109.126 243.214 113.503 235.484 120.973 233.414C128.442 231.343 136.175 235.717 138.244 243.183C140.313 250.648 135.936 258.379 128.466 260.449Z" fill="white" stroke="#262626" stroke-width="0.496227" stroke-miterlimit="10"/>
<path d="M124.721 246.932L178.609 151.768" stroke="#FF6B00" stroke-width="0.496227" stroke-miterlimit="10"/>
<path d="M184.247 160.871C176.777 162.942 169.045 158.568 166.975 151.102C164.906 143.637 169.284 135.906 176.753 133.836C184.222 131.765 191.955 136.139 194.024 143.605C196.094 151.07 191.716 158.801 184.247 160.871Z" fill="white" stroke="#FF6B00" stroke-width="0.496227" stroke-miterlimit="10"/>
<path d="M175.335 134.34L177.615 128.93L190.77 145.507L180.802 164.493L178.356 161.282" stroke="#FF6B00" stroke-width="0.496227" stroke-miterlimit="10"/>
<path d="M244.764 194.627L239.899 199.082L239.587 197.957L243.321 194.686L243.302 194.616L238.416 193.734L238.104 192.609L244.569 193.924L244.764 194.627ZM233.115 201.266L238.744 199.706L239.012 200.673L233.383 202.234L233.115 201.266ZM227.515 202.818L233.144 201.258L233.413 202.225L227.783 203.786L227.515 202.818ZM221.915 204.37L227.545 202.81L227.813 203.777L222.183 205.338L221.915 204.37ZM215.179 196.084L216.129 195.82L222.021 205.8L221.071 206.063L215.179 196.084ZM211.901 207.146L217.53 205.586L217.798 206.553L212.169 208.114L211.901 207.146ZM204.121 205.893L203.926 205.189L208.791 200.734L209.103 201.859L205.369 205.13L205.388 205.2L210.274 206.082L210.586 207.207L204.121 205.893Z" fill="black"/>
<path d="M305.562 166.578C303.224 167.226 300.804 165.857 300.156 163.521C299.509 161.184 300.879 158.765 303.216 158.117C305.554 157.469 307.974 158.838 308.622 161.174C309.27 163.511 307.9 165.93 305.562 166.578Z" fill="white" stroke="#F55800" stroke-width="0.496227" stroke-miterlimit="10"/>
<path d="M353.042 83.1926C343.748 85.7688 334.127 80.3266 331.552 71.0372C328.977 61.7479 334.424 52.129 343.718 49.5529C353.012 46.9768 362.633 52.4189 365.208 61.7083C367.783 70.9977 362.336 80.6165 353.042 83.1926Z" fill="white" stroke="#F55800" stroke-width="0.496227" stroke-miterlimit="10"/>
<path d="M125.709 248.876C124.34 249.256 122.924 248.454 122.544 247.087C122.165 245.719 122.967 244.303 124.336 243.923C125.704 243.544 127.121 244.345 127.5 245.713C127.879 247.081 127.077 248.497 125.709 248.876Z" fill="white" stroke="#FF6B00" stroke-width="0.496227" stroke-miterlimit="10"/>
<path d="M333.992 56.5802C333.992 56.5802 336.29 67.2772 346.31 72.9447C356.33 78.6123 363.42 75.3136 363.42 75.3136" fill="white"/>
<path d="M333.992 56.5802C333.992 56.5802 336.29 67.2772 346.31 72.9447C356.33 78.6123 363.42 75.3136 363.42 75.3136" stroke="#F55800" stroke-width="0.496227" stroke-miterlimit="10"/>
<path d="M224.455 105.392L238.256 100.234L236.597 85.0258L250.828 79.4144L252.544 94.8287L267.348 89.2806L269.104 105.239L254.213 110.478L239.736 115.602L241.348 131.045L227.405 135.688L228.885 151.056L215.372 155.246L213.977 140.187L212.508 125.26L225.878 120.554L224.455 105.392Z" fill="#666666"/>
<path d="M222.984 90.467L221.412 75.5687L235.069 69.894L236.596 85.0274L222.984 90.467Z" fill="#262626"/>
<path d="M211.064 110.437L209.652 95.716L222.982 90.4653L224.452 105.392L211.064 110.437Z" fill="#262626"/>
<path d="M196.914 100.694L195.587 86.2829L208.241 80.9976L209.653 95.7181L196.914 100.694Z" fill="#262626"/>
<path d="M198.269 115.208L211.066 110.439L212.507 125.263L199.549 129.854L187.108 134.303L185.782 119.892L184.484 105.584L196.914 100.694L198.269 115.208Z" fill="#FF6B00"/>
<path d="M265.648 73.5281L250.826 79.4143L249.213 63.9715L235.068 69.8924L233.57 54.8623L247.658 48.735L262.234 42.3614L263.875 57.9075L279.127 51.5686L294.97 44.9548L296.914 61.1945L280.986 67.4988L282.77 83.5608L267.346 89.2805L265.648 73.5281Z" fill="#F55800"/>
<path d="M298.887 77.5369L300.785 94.0116L284.685 99.6967L282.769 83.5601L298.887 77.5369Z" fill="#262626"/>
<path d="M275.524 20.1211L277.297 35.7417L262.234 42.3616L260.518 26.9473L275.524 20.1211Z" fill="#262626"/>
<path d="M221.409 75.5697L208.239 80.998L206.884 66.4839L205.558 52.0729L218.481 46.1572L231.996 39.9666L233.569 54.8649L219.968 60.7459L221.409 75.5697Z" fill="#262626"/>
<path d="M182.001 77.3795L194.288 71.9736L195.586 86.2814L183.242 91.4809L182.001 77.3795Z" fill="#262626"/>
<path d="M172.57 110.327L171.358 96.3292L183.243 91.4792L184.484 105.581L172.57 110.327Z" fill="#262626"/>
<path d="M284.686 99.6965L286.527 115.965L270.857 121.197L269.101 105.239L284.686 99.6965Z" fill="#262626"/>
<path d="M107.621 148.33L335.967 215.71" stroke="#FF6B00" stroke-width="0.496227" stroke-miterlimit="10"/>
<path d="M343.678 191.791L343.834 223.638L312.937 248.537L313.124 217.928L343.678 191.791Z" fill="white" stroke="#666666" stroke-width="0.496227" stroke-miterlimit="10"/>
</svg>